<svg xmlns="http://www.w3.org/2000/svg" viewBox="0 0 786.86 192.78" width="786.86" height="192.78" role="img" aria-label="JastipKita"><title>JastipKita</title><path fill="#FFFFFF" d="M60.87,67.54c0.3,-5.86 5.14,-10.46 11,-10.46h9.06v-7.01c0,-17.97 14.57,-32.55 32.55,-32.55c17.97,0 32.55,14.57 32.55,32.55v7.01h9.06c5.87,0 10.7,4.6 11,10.46l2.64,51.88c-1.21,0.51 -2.43,1 -3.64,1.49c-14.66,5.88 -29.95,10.21 -45.43,13.28c-14.84,2.95 -29.97,4.78 -45.11,4.95c-5.7,0.07 -11.52,-0.03 -17.28,-0.6zM170.65,157.36c0.24,4.66 -1.45,9.21 -4.66,12.59c-3.21,3.38 -7.67,5.3 -12.34,5.3h-80.34c-4.67,0 -9.13,-1.91 -12.34,-5.3c-1.66,-1.75 -2.91,-3.81 -3.7,-6.04c3.16,0.35 6.31,0.56 9.41,0.68c17.18,0.65 34.47,-1.83 51.12,-5.94c17.92,-4.42 35.56,-10.84 51.94,-19.49zM136.5,50.07c0,-12.72 -10.31,-23.03 -23.03,-23.03c-12.72,0 -23.03,10.31 -23.03,23.03v7.01h46.07zM85.68,76.61c2.49,0 4.51,-2.02 4.51,-4.51c0,-1.77 -1.02,-3.3 -2.5,-4.04v-10.98h-4.01v10.98c-1.48,0.74 -2.5,2.27 -2.5,4.04c0,2.49 2.02,4.51 4.51,4.51zM141.26,76.61c2.49,0 4.51,-2.02 4.51,-4.51c0,-1.77 -1.02,-3.3 -2.5,-4.04v-10.98h-4.01v10.98c-1.48,0.74 -2.5,2.27 -2.5,4.04c0,2.49 2.02,4.51 4.51,4.51z"/><path fill="#FFFFFF" d="M53.86,90.66c-4.73,2.89 -9.28,6.13 -13.47,9.77c-1.65,1.44 -3.25,2.94 -4.77,4.51c-1.06,1.09 -2.07,2.22 -3.05,3.39c-0.9,1.08 -1.76,2.2 -2.57,3.35c-4.01,5.75 -7.85,14.26 -3.4,20.83c0.66,0.97 1.45,1.84 2.33,2.61c1.72,1.52 3.73,2.69 5.81,3.66c3.18,1.48 6.57,2.5 9.98,3.28c14.29,3.28 29.46,3.06 43.99,1.96c26.67,-2.02 53.4,-8 78.24,-17.94c11.13,-4.46 22.13,-9.78 31.85,-16.87c3.24,-2.37 6.35,-4.95 9.11,-7.87c0.91,-0.97 1.79,-1.98 2.6,-3.03c0.26,-0.34 0.51,-0.68 0.75,-1.02c0.24,-0.34 0.34,-1.26 0.69,-1.03c0.35,0.22 -0.41,0.72 -0.63,1.07c-0.22,0.36 -0.44,0.73 -0.66,1.09c-1.74,2.81 -3.73,5.45 -5.9,7.94c-8.6,9.9 -19.58,17.67 -30.87,24.2c-24.19,13.98 -51.67,23.17 -79.33,26.98c-15.48,2.13 -31.63,2.67 -46.95,-0.87c-5.24,-1.21 -10.42,-2.94 -15.16,-5.51c-2.87,-1.55 -5.58,-3.42 -7.93,-5.69c-1.83,-1.77 -3.42,-3.79 -4.63,-6.03c-0.76,-1.42 -1.36,-2.92 -1.76,-4.47c-2.89,-11.15 4.95,-21.26 12.7,-28.3c1.16,-1.05 2.35,-2.07 3.56,-3.05c5.54,-4.51 11.56,-8.41 17.72,-12.02c0.82,-0.48 1.6,-0.93 2.39,-1.38l0,0.06c-0.35,0.21 -0.65,0.39 -0.65,0.39z"/><path fill="#FFFFFF" d="M234.51,60.05c0.81,0.89 1.07,2.15 0.7,3.28c-0.27,0.56 -0.65,1.07 -1.12,1.49l-7.39,6.66l4.04,22.94c0.13,0.73 -0.13,1.48 -0.68,1.98l-1.48,1.33c-0.52,0.47 -1.24,0.66 -1.92,0.5c-0.69,-0.16 -1.25,-0.63 -1.52,-1.28l-7.26,-17.53l-6.01,5.42l0.76,7.71c0.04,0.46 -0.13,0.91 -0.47,1.21l-0.62,0.56c-0.37,0.33 -0.88,0.45 -1.35,0.32c-0.48,-0.13 -0.85,-0.5 -0.99,-0.98l-1.92,-6.43l-1.35,-0.28c-0.62,-0.13 -1.08,-0.64 -1.14,-1.27l-0.14,-1.37l-6.2,-2.59c-0.46,-0.19 -0.78,-0.6 -0.87,-1.09c-0.08,-0.49 0.09,-0.98 0.46,-1.31l0.62,-0.56c0.34,-0.31 0.81,-0.43 1.26,-0.34l7.59,1.56l6.01,-5.42l-16.67,-9.05c-0.62,-0.34 -1.03,-0.95 -1.12,-1.65c-0.08,-0.7 0.18,-1.39 0.7,-1.86l1.48,-1.33c0.55,-0.5 1.33,-0.68 2.04,-0.47l22.39,6.42l7.39,-6.66c0.47,-0.42 1.01,-0.74 1.6,-0.95c1.17,-0.24 2.38,0.15 3.19,1.04z"/><path fill="#FFFFFF" d="M308.74,65.84h14.1v49c0,6.8 -1.97,12.08 -5.9,15.85c-3.93,3.77 -9.2,5.65 -15.8,5.65v0c-6.67,0 -12.05,-1.93 -16.15,-5.8c-4.1,-3.87 -6.15,-9.27 -6.15,-16.2v0h14c0.07,3 0.78,5.33 2.15,7c1.37,1.67 3.35,2.5 5.95,2.5v0c2.53,0 4.47,-0.8 5.8,-2.4c1.33,-1.6 2,-3.8 2,-6.6v0v-49M334.04,107.74c0,-5.6 1.12,-10.57 3.35,-14.9c2.23,-4.33 5.27,-7.67 9.1,-10c3.83,-2.33 8.12,-3.5 12.85,-3.5v0c4.13,0 7.75,0.83 10.85,2.5c3.1,1.67 5.58,3.77 7.45,6.3v0v-7.9h14.1v55.4h-14.1v-8.1c-1.8,2.6 -4.28,4.75 -7.45,6.45c-3.17,1.7 -6.82,2.55 -10.95,2.55v0c-4.67,0 -8.92,-1.2 -12.75,-3.6c-3.83,-2.4 -6.87,-5.78 -9.1,-10.15c-2.23,-4.37 -3.35,-9.38 -3.35,-15.05v0M377.64,107.94c0,-3.4 -0.67,-6.32 -2,-8.75c-1.33,-2.43 -3.13,-4.3 -5.4,-5.6c-2.27,-1.3 -4.7,-1.95 -7.3,-1.95v0c-2.6,0 -5,0.63 -7.2,1.9c-2.2,1.27 -3.98,3.12 -5.35,5.55c-1.37,2.43 -2.05,5.32 -2.05,8.65v0c0,3.33 0.68,6.25 2.05,8.75c1.37,2.5 3.17,4.42 5.4,5.75c2.23,1.33 4.62,2 7.15,2v0c2.6,0 5.03,-0.65 7.3,-1.95c2.27,-1.3 4.07,-3.17 5.4,-5.6c1.33,-2.43 2,-5.35 2,-8.75v0M425.14,136.54c-4.53,0 -8.6,-0.82 -12.2,-2.45c-3.6,-1.63 -6.45,-3.85 -8.55,-6.65c-2.1,-2.8 -3.25,-5.9 -3.45,-9.3v0h14.1c0.27,2.13 1.32,3.9 3.15,5.3c1.83,1.4 4.12,2.1 6.85,2.1v0c2.67,0 4.75,-0.53 6.25,-1.6c1.5,-1.07 2.25,-2.43 2.25,-4.1v0c0,-1.8 -0.92,-3.15 -2.75,-4.05c-1.83,-0.9 -4.75,-1.88 -8.75,-2.95v0c-4.13,-1 -7.52,-2.03 -10.15,-3.1c-2.63,-1.07 -4.9,-2.7 -6.8,-4.9c-1.9,-2.2 -2.85,-5.17 -2.85,-8.9v0c0,-3.07 0.88,-5.87 2.65,-8.4c1.77,-2.53 4.3,-4.53 7.6,-6c3.3,-1.47 7.18,-2.2 11.65,-2.2v0c6.6,0 11.87,1.65 15.8,4.95c3.93,3.3 6.1,7.75 6.5,13.35v0h-13.4c-0.2,-2.2 -1.12,-3.95 -2.75,-5.25c-1.63,-1.3 -3.82,-1.95 -6.55,-1.95v0c-2.53,0 -4.48,0.47 -5.85,1.4c-1.37,0.93 -2.05,2.23 -2.05,3.9v0c0,1.87 0.93,3.28 2.8,4.25c1.87,0.97 4.77,1.95 8.7,2.95v0c4,1 7.3,2.03 9.9,3.1c2.6,1.07 4.85,2.72 6.75,4.95c1.9,2.23 2.88,5.18 2.95,8.85v0c0,3.2 -0.88,6.07 -2.65,8.6c-1.77,2.53 -4.3,4.52 -7.6,5.95c-3.3,1.43 -7.15,2.15 -11.55,2.15v0M485.64,91.74h-12.4v26.8c0,1.87 0.45,3.22 1.35,4.05c0.9,0.83 2.42,1.25 4.55,1.25v0h6.5v11.8h-8.8c-11.8,0 -17.7,-5.73 -17.7,-17.2v0v-26.7h-6.6v-11.5h6.6v-13.7h14.1v13.7h12.4v11.5M501.34,73.64c-2.47,0 -4.52,-0.78 -6.15,-2.35c-1.63,-1.57 -2.45,-3.52 -2.45,-5.85v0c0,-2.33 0.82,-4.28 2.45,-5.85c1.63,-1.57 3.68,-2.35 6.15,-2.35v0c2.47,0 4.52,0.78 6.15,2.35c1.63,1.57 2.45,3.52 2.45,5.85v0c0,2.33 -0.82,4.28 -2.45,5.85c-1.63,1.57 -3.68,2.35 -6.15,2.35v0M494.24,80.24h14v55.4h-14v-55.4M534.54,88.24c1.8,-2.53 4.28,-4.65 7.45,-6.35c3.17,-1.7 6.78,-2.55 10.85,-2.55v0c4.73,0 9.02,1.17 12.85,3.5c3.83,2.33 6.87,5.65 9.1,9.95c2.23,4.3 3.35,9.28 3.35,14.95v0c0,5.67 -1.12,10.68 -3.35,15.05c-2.23,4.37 -5.27,7.75 -9.1,10.15c-3.83,2.4 -8.12,3.6 -12.85,3.6v0c-4.07,0 -7.65,-0.83 -10.75,-2.5c-3.1,-1.67 -5.62,-3.77 -7.55,-6.3v0v34.3h-14v-81.8h14v8M563.84,107.74c0,-3.33 -0.68,-6.22 -2.05,-8.65c-1.37,-2.43 -3.17,-4.28 -5.4,-5.55c-2.23,-1.27 -4.65,-1.9 -7.25,-1.9v0c-2.53,0 -4.92,0.65 -7.15,1.95c-2.23,1.3 -4.03,3.18 -5.4,5.65c-1.37,2.47 -2.05,5.37 -2.05,8.7v0c0,3.33 0.68,6.23 2.05,8.7c1.37,2.47 3.17,4.35 5.4,5.65c2.23,1.3 4.62,1.95 7.15,1.95v0c2.6,0 5.02,-0.67 7.25,-2c2.23,-1.33 4.03,-3.23 5.4,-5.7c1.37,-2.47 2.05,-5.4 2.05,-8.8v0"/><path fill="#FFFFFF" d="M643.94,135.64h-17.7l-25.4,-31.1v31.1h-14v-69.8h14v31.3l25.4,-31.3h16.9l-28.8,34.6l29.6,35.2M658.74,73.64c-2.47,0 -4.52,-0.78 -6.15,-2.35c-1.63,-1.57 -2.45,-3.52 -2.45,-5.85v0c0,-2.33 0.82,-4.28 2.45,-5.85c1.63,-1.57 3.68,-2.35 6.15,-2.35v0c2.47,0 4.52,0.78 6.15,2.35c1.63,1.57 2.45,3.52 2.45,5.85v0c0,2.33 -0.82,4.28 -2.45,5.85c-1.63,1.57 -3.68,2.35 -6.15,2.35v0M651.64,80.24h14v55.4h-14v-55.4M706.64,91.74h-12.4v26.8c0,1.87 0.45,3.22 1.35,4.05c0.9,0.83 2.42,1.25 4.55,1.25v0h6.5v11.8h-8.8c-11.8,0 -17.7,-5.73 -17.7,-17.2v0v-26.7h-6.6v-11.5h6.6v-13.7h14.1v13.7h12.4v11.5M711.64,107.74c0,-5.6 1.12,-10.57 3.35,-14.9c2.23,-4.33 5.27,-7.67 9.1,-10c3.83,-2.33 8.12,-3.5 12.85,-3.5v0c4.13,0 7.75,0.83 10.85,2.5c3.1,1.67 5.58,3.77 7.45,6.3v0v-7.9h14.1v55.4h-14.1v-8.1c-1.8,2.6 -4.28,4.75 -7.45,6.45c-3.17,1.7 -6.82,2.55 -10.95,2.55v0c-4.67,0 -8.92,-1.2 -12.75,-3.6c-3.83,-2.4 -6.87,-5.78 -9.1,-10.15c-2.23,-4.37 -3.35,-9.38 -3.35,-15.05v0M755.24,107.94c0,-3.4 -0.67,-6.32 -2,-8.75c-1.33,-2.43 -3.13,-4.3 -5.4,-5.6c-2.27,-1.3 -4.7,-1.95 -7.3,-1.95v0c-2.6,0 -5,0.63 -7.2,1.9c-2.2,1.27 -3.98,3.12 -5.35,5.55c-1.37,2.43 -2.05,5.32 -2.05,8.65v0c0,3.33 0.68,6.25 2.05,8.75c1.37,2.5 3.17,4.42 5.4,5.75c2.23,1.33 4.62,2 7.15,2v0c2.6,0 5.03,-0.65 7.3,-1.95c2.27,-1.3 4.07,-3.17 5.4,-5.6c1.33,-2.43 2,-5.35 2,-8.75v0"/></svg>
